<svg xmlns="http://www.w3.org/2000/svg" id="Layer_1" data-name="Layer 1"
  viewBox="0 0 1034.85 269.53">
  <defs>
    <style>.cls-1{fill:#395241;}.cls-2{fill:#6b8065;}.cls-3{fill:#374756;}</style>
  </defs>
  <path class="cls-1"
    d="M492.89,737.41h90.28L605.84,701h-113a91.91,91.91,0,0,0-1.37,183.81l22.67-36.46h-21.3a55.54,55.54,0,0,1-52.37-37.21h96.82L560,774.63H440.52A55.55,55.55,0,0,1,492.89,737.41Z"
    transform="translate(-232.58 -615.24)" />
  <path class="cls-2"
    d="M435.63,774.63A92.11,92.11,0,0,0,345.54,701h-113l22.67,36.46h90.29a55.45,55.45,0,0,1,0,110.89H324.23l22.67,36.46a92,92,0,0,0,88.73-110.13Z"
    transform="translate(-232.58 -615.24)" />
  <circle class="cls-1" cx="419.21" cy="654.95" r="39.71"
    transform="translate(-371.84 -501.4) rotate(-13.28)" />
  <path class="cls-3"
    d="M692.59,707.69H659.08a3.31,3.31,0,0,0-3.46,3.46v109a3.31,3.31,0,0,0,3.46,3.46h33.51c35.9,0,59.1-22.75,59.1-58S728.49,707.69,692.59,707.69Zm33.47,58c0,23.07-11.68,35.26-33.79,35.26H680.92V730.39h11.35C714.38,730.39,726.06,742.58,726.06,765.65Z"
    transform="translate(-232.58 -615.24)" />
  <path class="cls-3" d="M779,702.81a13.47,13.47,0,1,0,0,26.93,13.47,13.47,0,0,0,0-26.93Z"
    transform="translate(-232.58 -615.24)" />
  <rect class="cls-3" x="533.99" y="126.62" width="24.65" height="81.76" rx="3.46" />
  <path class="cls-3"
    d="M857.36,742.06c-1.31-1-3.76-2.16-7.94-2.16-7.41,0-12.95,3.77-16.51,11.22l-.37-5.73c-.19-2.35-1.35-3.54-3.45-3.54H812.17a3.31,3.31,0,0,0-3.46,3.46v74.84a3.31,3.31,0,0,0,3.46,3.46h17.57a3.31,3.31,0,0,0,3.46-3.46V780.29c0-11.24,5.79-17.69,15.9-17.69a20.12,20.12,0,0,1,5.63.79,4,4,0,0,0,3.48-.39,3.11,3.11,0,0,0,1-2.56V746.13A4.53,4.53,0,0,0,857.36,742.06Z"
    transform="translate(-232.58 -615.24)" />
  <path class="cls-3"
    d="M907.34,739.9c-24.34,0-42,17.88-42,42.51,0,12.05,4.4,23,12.37,30.82s19.61,12.33,32.42,12.33c12,0,22.33-3.68,29-10.34,2.27-2,1.78-3.8,1-4.94L934,802a2.81,2.81,0,0,0-4.1-.94,34.34,34.34,0,0,1-18,4.74c-11.89,0-19.55-4.69-22.26-13.58h47.15c8.62,0,9.81-6.35,9.81-13.22C946.6,759.56,933.11,739.9,907.34,739.9Zm17,34.49H889.24c2.1-8.86,8.69-13.9,18.27-13.9C916.77,760.49,922.86,765.54,924.38,774.39Z"
    transform="translate(-232.58 -615.24)" />
  <path class="cls-3"
    d="M1020,796.49a3.91,3.91,0,0,0-5.67,0c-4.4,4.41-8.9,6.37-14.57,6.37-11.85,0-20.46-8.6-20.46-20.45,0-11.66,8.21-19.81,20-19.81,5.9,0,10.49,2,14.9,6.37a3.92,3.92,0,0,0,5.67,0l9.76-9.61a3.35,3.35,0,0,0,.41-4.76c-7.27-9.35-18.83-14.71-31.71-14.71-24.33,0-42.67,18.27-42.67,42.51,0,24.6,18.55,43.15,43.15,43.15,12.68,0,24.12-5.36,31.36-14.67a3.37,3.37,0,0,0-.38-4.81Z"
    transform="translate(-232.58 -615.24)" />
  <path class="cls-3"
    d="M1087.12,741.85h-11.51V724.16a3.31,3.31,0,0,0-3.46-3.46h-17.74a3.31,3.31,0,0,0-3.46,3.46v17.69h-9.06a3.31,3.31,0,0,0-3.46,3.46v12.53a3.31,3.31,0,0,0,3.46,3.46H1051v39c0,15.44,9.15,24.29,25.1,24.29,3.41,0,14.53-.42,14.53-5.74V807a3.21,3.21,0,0,0-1-2.45,3.89,3.89,0,0,0-3-.84c-1.91.16-3.53.16-5,.16-2.72,0-6-1-6-6V761.3h11.51a3.31,3.31,0,0,0,3.46-3.46V745.31A3.32,3.32,0,0,0,1087.12,741.85Z"
    transform="translate(-232.58 -615.24)" />
  <path class="cls-3"
    d="M1165.86,707.69h-57.92a3.31,3.31,0,0,0-3.46,3.46v109a3.31,3.31,0,0,0,3.46,3.46h57.92a3.31,3.31,0,0,0,3.46-3.46V804.37a3.31,3.31,0,0,0-3.46-3.46h-36.08V776.27h34a3.31,3.31,0,0,0,3.46-3.46V757a3.31,3.31,0,0,0-3.46-3.46h-34V730.39h36.08a3.31,3.31,0,0,0,3.46-3.46V711.15A3.31,3.31,0,0,0,1165.86,707.69Z"
    transform="translate(-232.58 -615.24)" />
  <path class="cls-3"
    d="M1264,705.25h-17.73a3.31,3.31,0,0,0-3.46,3.46v40.6c-5.7-6.25-13.61-9.41-23.55-9.41-22.55,0-38.93,18-38.93,42.83s16.38,42.83,38.93,42.83c10.46,0,19.09-3.88,25.12-11.27l.22,5.86a3.31,3.31,0,0,0,3.46,3.46h15.78a3.46,3.46,0,0,0,3.62-3.46V708.71A3.31,3.31,0,0,0,1264,705.25Zm-40,97.78c-11.57,0-19.64-8.35-19.64-20.3s8.07-20.29,19.64-20.29,19.15,8.15,19.15,20.29S1235.4,803,1223.94,803Z"
    transform="translate(-232.58 -615.24)" />
  <path class="cls-3"
    d="M655.62,875.47V845.09a.65.65,0,0,1,.68-.68h9.34c10.61,0,16.18,6.94,16.18,15.87s-5.57,15.87-16.18,15.87H656.3A.64.64,0,0,1,655.62,875.47Zm9.93-5.08c6.43,0,9.7-3.58,9.7-10.11s-3.27-10.11-9.7-10.11H662.1v20.22Z"
    transform="translate(-232.58 -615.24)" />
  <path class="cls-3"
    d="M689.89,865c0-6.53,4.58-11.56,11.43-11.56A10.24,10.24,0,0,1,712,864c0,2.18-.5,3.4-2.45,3.4H696c.68,2.81,3,4.35,6.58,4.35a9.78,9.78,0,0,0,5.17-1.36.51.51,0,0,1,.77.18l1.68,2.32c.22.31.18.63-.23,1a11,11,0,0,1-7.89,2.81C694.79,876.69,689.89,871.66,689.89,865Zm16.51-2a4.73,4.73,0,0,0-5-4.44,5.16,5.16,0,0,0-5.44,4.44Z"
    transform="translate(-232.58 -615.24)" />
  <path class="cls-3"
    d="M726.12,875.61l-8.3-20.9c-.18-.5,0-.77.55-.77h5a.83.83,0,0,1,.82.54l5.26,14.46,5.21-14.46a.84.84,0,0,1,.82-.54h5c.5,0,.72.27.54.77l-8.3,20.9a.82.82,0,0,1-.81.54h-4.94A.83.83,0,0,1,726.12,875.61Z"
    transform="translate(-232.58 -615.24)" />
  <path class="cls-3"
    d="M746.84,865c0-6.53,4.58-11.56,11.42-11.56A10.25,10.25,0,0,1,768.92,864c0,2.18-.5,3.4-2.45,3.4H753c.68,2.81,3,4.35,6.57,4.35a9.74,9.74,0,0,0,5.17-1.36.51.51,0,0,1,.77.18l1.68,2.32c.23.31.18.63-.22,1a11,11,0,0,1-7.89,2.81C751.74,876.69,746.84,871.66,746.84,865Zm16.5-2a4.71,4.71,0,0,0-5-4.44,5.15,5.15,0,0,0-5.44,4.44Z"
    transform="translate(-232.58 -615.24)" />
  <path class="cls-3"
    d="M777.67,875.47V844.41a.65.65,0,0,1,.68-.68h4.94a.65.65,0,0,1,.68.68v31.06a.64.64,0,0,1-.68.68h-4.94A.64.64,0,0,1,777.67,875.47Z"
    transform="translate(-232.58 -615.24)" />
  <path class="cls-3"
    d="M792.77,865a11.63,11.63,0,1,1,11.65,11.65A11.4,11.4,0,0,1,792.77,865Zm11.65,5.9c3.13,0,5.58-2.27,5.58-5.9s-2.45-5.89-5.58-5.89A5.5,5.5,0,0,0,798.8,865C798.8,868.67,801.25,870.94,804.42,870.94Z"
    transform="translate(-232.58 -615.24)" />
  <path class="cls-3"
    d="M824.78,884.08V854.61a.64.64,0,0,1,.68-.67H830a.64.64,0,0,1,.68.67l.09,2.45a8.05,8.05,0,0,1,7.25-3.67c6.21,0,10.52,5.08,10.52,11.65s-4.31,11.65-10.52,11.65a8.28,8.28,0,0,1-6.89-3.17v10.56a.64.64,0,0,1-.68.68h-4.94A.64.64,0,0,1,824.78,884.08ZM836.66,871a5.94,5.94,0,0,0,0-11.88c-3.36,0-5.67,2.36-5.67,5.94S833.3,871,836.66,871Z"
    transform="translate(-232.58 -615.24)" />
  <path class="cls-3"
    d="M857.29,875.47V854.61a.64.64,0,0,1,.68-.67h4.71c.41,0,.68.18.68.72l.14,2.36a6.9,6.9,0,0,1,6.25-3.63,6.61,6.61,0,0,1,6.31,4,7.31,7.31,0,0,1,6.84-4c4.76,0,7.66,3.27,7.66,9.07v13a.64.64,0,0,1-.68.68H885a.64.64,0,0,1-.68-.68V863.82c0-3-1.09-4.67-3.54-4.67s-3.72,1.63-3.72,4.67v11.65a.64.64,0,0,1-.68.68h-4.85a.65.65,0,0,1-.72-.68V863.82c0-3-1.14-4.67-3.54-4.67s-3.72,1.63-3.72,4.67v11.65a.64.64,0,0,1-.68.68H858A.64.64,0,0,1,857.29,875.47Z"
    transform="translate(-232.58 -615.24)" />
  <path class="cls-3"
    d="M899.32,865c0-6.53,4.57-11.56,11.42-11.56A10.24,10.24,0,0,1,921.39,864c0,2.18-.49,3.4-2.44,3.4H905.44c.68,2.81,3,4.35,6.57,4.35a9.78,9.78,0,0,0,5.17-1.36.51.51,0,0,1,.77.18l1.68,2.32c.22.31.18.63-.23,1a11,11,0,0,1-7.89,2.81C904.21,876.69,899.32,871.66,899.32,865Zm16.5-2a4.72,4.72,0,0,0-5-4.44,5.15,5.15,0,0,0-5.44,4.44Z"
    transform="translate(-232.58 -615.24)" />
  <path class="cls-3"
    d="M930.15,875.47V854.61a.64.64,0,0,1,.68-.67h4.71c.41,0,.68.18.68.72l.18,2.63a7.26,7.26,0,0,1,6.71-3.9c4.63,0,8,3.36,8,9.16v12.92a.68.68,0,0,1-.73.68h-4.85a.64.64,0,0,1-.68-.68V864c0-3.12-1.45-4.8-4.13-4.8s-4.35,1.68-4.35,4.8v11.52a.64.64,0,0,1-.68.68h-4.89A.64.64,0,0,1,930.15,875.47Z"
    transform="translate(-232.58 -615.24)" />
  <path class="cls-3"
    d="M962.25,869.94V858.79h-2.81a.65.65,0,0,1-.68-.68v-3.5a.64.64,0,0,1,.68-.67h2.81v-5.22a.64.64,0,0,1,.68-.68h4.94a.64.64,0,0,1,.68.68v5.22H972a.64.64,0,0,1,.68.67v3.5a.65.65,0,0,1-.68.68h-3.49v10.47a1.77,1.77,0,0,0,2,2c.41,0,.86,0,1.4-.05s.82.18.82.64v3.31c0,1-2.27,1.31-3.76,1.31C965.42,876.42,962.25,874.79,962.25,869.94Z"
    transform="translate(-232.58 -615.24)" />
  <path class="cls-3"
    d="M995.07,875.47V845.09a.65.65,0,0,1,.68-.68h15.91a.69.69,0,0,1,.73.68v4.4a.68.68,0,0,1-.73.68h-10.11V857h9.53a.68.68,0,0,1,.72.68v4.4a.68.68,0,0,1-.72.68h-9.53v12.74a.64.64,0,0,1-.68.68h-5.12A.64.64,0,0,1,995.07,875.47Z"
    transform="translate(-232.58 -615.24)" />
  <path class="cls-3"
    d="M1019.56,865a11.63,11.63,0,1,1,11.65,11.65A11.4,11.4,0,0,1,1019.56,865Zm11.65,5.9c3.12,0,5.57-2.27,5.57-5.9s-2.45-5.89-5.57-5.89a5.51,5.51,0,0,0-5.63,5.89C1025.58,868.67,1028,870.94,1031.21,870.94Z"
    transform="translate(-232.58 -615.24)" />
  <path class="cls-3"
    d="M1051.34,867.54V854.61a.64.64,0,0,1,.68-.67h4.89a.64.64,0,0,1,.68.67v11.52c0,3.13,1.45,4.81,4.13,4.81s4.35-1.68,4.35-4.81V854.61a.64.64,0,0,1,.68-.67h4.85a.68.68,0,0,1,.73.67v20.86a.68.68,0,0,1-.73.68h-4.67c-.4,0-.63-.18-.68-.72l-.18-2.63a7.27,7.27,0,0,1-6.71,3.89C1054.69,876.69,1051.34,873.34,1051.34,867.54Z"
    transform="translate(-232.58 -615.24)" />
  <path class="cls-3"
    d="M1082.21,875.47V854.61a.64.64,0,0,1,.68-.67h4.72c.41,0,.68.18.68.72l.18,2.63a7.26,7.26,0,0,1,6.71-3.9c4.62,0,8,3.36,8,9.16v12.92a.67.67,0,0,1-.72.68h-4.85a.64.64,0,0,1-.68-.68V864c0-3.12-1.45-4.8-4.13-4.8s-4.35,1.68-4.35,4.8v11.52a.64.64,0,0,1-.68.68h-4.9A.65.65,0,0,1,1082.21,875.47Z"
    transform="translate(-232.58 -615.24)" />
  <path class="cls-3"
    d="M1112,865c0-6.57,4.3-11.65,10.56-11.65a8.08,8.08,0,0,1,6.85,3.13V844.41a.65.65,0,0,1,.68-.68H1135a.65.65,0,0,1,.68.68v31.06a.68.68,0,0,1-.73.68h-4.4a.65.65,0,0,1-.68-.68l-.09-2.45a8.3,8.3,0,0,1-7.25,3.67C1116.26,876.69,1112,871.66,1112,865Zm11.87,5.94c3.31,0,5.63-2.36,5.63-5.94s-2.32-5.94-5.63-5.94a5.94,5.94,0,0,0,0,11.88Z"
    transform="translate(-232.58 -615.24)" />
  <path class="cls-3"
    d="M1144.46,865c0-6.57,4.31-11.65,10.57-11.65a8.11,8.11,0,0,1,7.25,3.67l.09-2.45a.64.64,0,0,1,.68-.67h4.45a.64.64,0,0,1,.68.67v20.86a.68.68,0,0,1-.73.68h-4.4a.64.64,0,0,1-.68-.68l-.09-2.45a8.3,8.3,0,0,1-7.25,3.67C1148.77,876.69,1144.46,871.66,1144.46,865Zm11.88,5.94c3.31,0,5.62-2.36,5.62-5.94s-2.31-5.94-5.62-5.94a5.94,5.94,0,0,0,0,11.88Z"
    transform="translate(-232.58 -615.24)" />
  <path class="cls-3"
    d="M1180.24,869.94V858.79h-2.81a.65.65,0,0,1-.68-.68v-3.5a.64.64,0,0,1,.68-.67h2.81v-5.22a.64.64,0,0,1,.68-.68h4.94a.64.64,0,0,1,.68.68v5.22H1190a.64.64,0,0,1,.68.67v3.5a.65.65,0,0,1-.68.68h-3.49v10.47a1.77,1.77,0,0,0,2,2c.41,0,.86,0,1.4-.05s.82.18.82.64v3.31c0,1-2.27,1.31-3.76,1.31C1183.41,876.42,1180.24,874.79,1180.24,869.94Z"
    transform="translate(-232.58 -615.24)" />
  <path class="cls-3"
    d="M1199,846.5a3.43,3.43,0,0,1,3.49-3.45,3.47,3.47,0,0,1,0,6.94A3.44,3.44,0,0,1,1199,846.5Zm.32,8.11a.64.64,0,0,1,.68-.67h4.94a.64.64,0,0,1,.68.67v20.86a.64.64,0,0,1-.68.68H1200a.64.64,0,0,1-.68-.68Z"
    transform="translate(-232.58 -615.24)" />
  <path class="cls-3"
    d="M1214.42,865a11.63,11.63,0,1,1,11.65,11.65A11.4,11.4,0,0,1,1214.42,865Zm11.65,5.9c3.13,0,5.58-2.27,5.58-5.9s-2.45-5.89-5.58-5.89a5.5,5.5,0,0,0-5.62,5.89C1220.45,868.67,1222.9,870.94,1226.07,870.94Z"
    transform="translate(-232.58 -615.24)" />
  <path class="cls-3"
    d="M1246.43,875.47V854.61a.64.64,0,0,1,.68-.67h4.72c.4,0,.68.18.68.72l.18,2.63a7.26,7.26,0,0,1,6.71-3.9c4.62,0,8,3.36,8,9.16v12.92a.68.68,0,0,1-.72.68h-4.85a.64.64,0,0,1-.68-.68V864c0-3.12-1.45-4.8-4.13-4.8s-4.35,1.68-4.35,4.8v11.52a.64.64,0,0,1-.68.68h-4.9A.64.64,0,0,1,1246.43,875.47Z"
    transform="translate(-232.58 -615.24)" />
</svg>